<svg xmlns="http://www.w3.org/2000/svg" preserveAspectRatio="xMidYMid meet" viewBox="-534 383 211 36">
    <path fill="#ac29b5" d="M-453.2 397.8c0 8.1 6.6 14.8 14.8 14.8 8.2 0 14.8-6.6 14.8-14.8 0-1.1-.1-2.2-.4-3.2h-10.4l-6.1 6h8.3c-1.1 2.4-3.5 4.1-6.4 4.1-3.8 0-7-3.1-7-6.9 0-3.8 3.1-6.9 7-6.9 1.4 0 2.7.4 3.8 1.1l5.6-5.6c-2.6-2.1-5.8-3.3-9.4-3.3-7.9-.1-14.6 6.5-14.6 14.7zm31.7-7.9h7.3V412h-7.3v-22.1zm0-6.4h7.3v4.4h-7.3v-4.4zm23.8 28.6l8.7-22.2h-7.7l-4.2 12.3-4.1-12.3h-7.8l8.7 22.1.1.2h6.3zm10.1-22.2h7.3V412h-7.3v-22.1zm0-6.4h7.3v4.4h-7.3v-4.4zm30.1 28.4v-14.1c0-5.2-3-8.4-7.8-8.4-2.2 0-4 .8-5.6 2.4l-2-2h-5.1v22.1h7.3v-12.2c0-1.6.5-3.5 3-3.5 1.9 0 2.8 1.2 2.8 3.5v12.2h7.4zm-166.7.4c6.6 0 10.3-3.8 10.3-10.4v-18.3h-7.6v18.1c0 2.5-.9 3.7-2.9 3.7-1.5 0-2.8-.7-4.4-2.5l-.3-.3-5 4.9.4.5c2.5 2.9 5.6 4.3 9.5 4.3zm179.4.3c-1.9 0-3.6-.3-5.3-1.1l-4.8 4.8.7.4c2.8 1.5 6.1 2.2 9.5 2.2 8.4 0 12.4-4.3 12.4-12.2v-16.8h-5.3l-1.9 1.9c-1.8-1.5-3.7-2.3-6.2-2.3-5 0-10 3.6-10 10.4v.1c0 6.8 5 10.4 10 10.4 2.4 0 4.2-.7 5.9-2.1-.3 2.6-1.9 4.3-5 4.3zm.8-8.2c-2.7 0-4.7-1.8-4.7-4.4v-.1c0-2.6 2-4.4 4.7-4.4s4.7 1.8 4.7 4.4v.1c0 2.5-2 4.4-4.7 4.4zm-167.5-14.5V404c0 5.2 3 8.4 7.8 8.4 2.2 0 4-.8 5.6-2.4l2 2h5.1v-22.1h-7.3v12.2c0 1.6-.5 3.5-2.9 3.5-1.9 0-2.8-1.2-2.8-3.5v-12.2h-7.5zm56.2 6.4v-6.4h-4.9v-6.3h-7.3v6.3h-2.5v6.4h2.5v9c0 4.7 2.2 6.9 6.8 6.9 1.9 0 3.5-.4 5-1.3l.4-.2v-6.3l-1.1.6c-.8.4-1.7.7-2.6.7-.9 0-1.2-.3-1.2-1.3v-8.1h4.9zm-24.2 10.6c-1.8 0-3.9-.8-5.9-2.1l-4 4-.1.1.4.3c2.7 2.1 6.1 3.3 9.5 3.3 5.4 0 8.7-2.7 8.7-7.3v-.1c0-4.5-4.4-6-6.8-6.8l-.7-.2c-1.7-.6-3.3-1.1-3.3-1.8v-.1c0-.7.9-1 1.7-1 1.2 0 2.8.5 4.5 1.4l4.2-4.2-.3-.2c-2.4-1.6-5.5-2.6-8.2-2.6-5 0-8.3 2.9-8.3 7.3v.1c0 4.3 3.4 5.9 6.7 6.8.3.1.6.2.8.2 1.8.5 3.3 1 3.3 1.7v.1c-.2.9-1.3 1.1-2.2 1.1zm148.7-16h1v2.5h1.2v-2.5h1v-1h-3.3v1zm6.4-1l-.8 1.2-.8-1.2h-1.2v3.5h1.2v-1.8l.5.8h.6l.5-.8v1.8h1.2v-3.5h-1.2z"/>
</svg>